<?xml version="1.0" standalone="no"?>
<!DOCTYPE svg PUBLIC "-//W3C//DTD SVG 20010904//EN"
 "http://www.w3.org/TR/2001/REC-SVG-20010904/DTD/svg10.dtd">
<svg version="1.0" xmlns="http://www.w3.org/2000/svg"
 width="1024.000000pt" height="1024.000000pt" viewBox="0 0 1024.000000 1024.000000"
 preserveAspectRatio="xMidYMid meet">

<g transform="translate(0.000000,1024.000000) scale(0.100000,-0.100000)"
fill="#000000" stroke="none">
<path d="M6815 7964 c-162 -6 -368 -25 -495 -45 -380 -61 -391 -63 -750 -165
-297 -83 -609 -210 -842 -340 -382 -213 -603 -440 -664 -682 -8 -34 -14 -72
-12 -84 2 -18 8 -12 30 28 63 115 253 319 374 401 152 103 426 213 692 278 95
23 174 39 177 35 2 -3 -22 -19 -53 -34 -83 -41 -289 -159 -427 -244 -221 -138
-419 -313 -501 -444 -91 -143 -90 -328 1 -483 35 -60 132 -147 228 -204 108
-63 152 -82 327 -143 330 -114 731 -303 939 -442 488 -327 796 -702 925 -1129
41 -134 56 -234 56 -365 0 -93 -1 -99 -42 -182 -56 -115 -152 -212 -258 -263
-238 -113 -605 -82 -857 73 -74 45 -312 260 -407 368 -45 50 -71 56 -63 15 17
-97 62 -274 93 -366 20 -60 33 -111 29 -115 -4 -4 -55 44 -114 105 -59 62
-110 113 -114 113 -4 0 -7 -28 -7 -62 0 -76 23 -129 105 -243 251 -349 603
-613 928 -695 415 -105 746 -72 1096 107 174 89 248 140 353 241 193 185 365
423 451 623 76 178 109 373 88 526 -20 144 -142 365 -288 523 -74 80 -230 209
-333 275 -36 23 -89 63 -119 88 -59 51 -400 292 -626 443 -77 51 -219 146
-315 210 -496 332 -720 537 -824 753 -45 95 -53 158 -31 256 37 167 150 331
275 399 254 138 619 121 826 -39 140 -109 215 -197 283 -333 58 -117 83 -187
122 -346 38 -156 55 -196 84 -196 13 0 27 6 32 13 5 6 15 68 22 137 36 369
123 666 284 974 75 144 121 211 203 293 56 57 90 81 155 112 46 22 99 43 117
46 28 6 32 4 32 -15 0 -17 -117 -260 -237 -492 -13 -27 -21 -48 -16 -48 4 0
45 51 91 113 95 129 216 285 319 413 40 49 73 92 73 96 0 21 -460 104 -681
122 -187 16 -570 26 -734 20z"/>
<path d="M6097 6979 c-123 -29 -245 -152 -277 -281 -18 -70 -7 -80 23 -21 38
74 126 164 197 202 72 39 193 81 231 81 43 0 43 17 1 24 -50 8 -129 6 -175 -5z"/>
<path d="M3249 6558 c95 -138 198 -237 466 -448 49 -39 91 -66 93 -60 5 14
-29 58 -159 205 -114 131 -175 188 -289 276 -161 123 -181 128 -111 27z"/>
<path d="M2625 6565 c-171 -38 -324 -148 -402 -290 -26 -46 -28 -59 -28 -155
0 -120 14 -161 90 -254 89 -108 210 -166 349 -166 71 0 87 4 133 30 58 33 88
73 156 205 82 160 163 241 282 286 36 13 53 25 48 32 -23 41 -137 176 -166
199 -141 110 -301 149 -462 113z"/>
<path d="M6061 6223 c46 -56 236 -189 359 -252 292 -148 595 -334 865 -531
298 -217 373 -279 572 -478 173 -172 328 -345 407 -456 31 -43 56 -74 56 -69
0 26 -46 149 -90 238 -75 155 -186 286 -440 518 -412 377 -724 599 -1135 807
-174 87 -261 123 -505 210 -99 35 -107 36 -89 13z"/>
<path d="M3409 6061 c-86 -17 -191 -109 -236 -207 -31 -68 -25 -93 9 -39 33
52 120 134 179 168 25 15 79 35 119 45 41 10 70 21 65 24 -19 11 -100 16 -136
9z"/>
<path d="M7992 5508 c-15 -15 -15 -55 -2 -94 11 -30 190 -204 190 -185 0 21
-93 242 -112 266 -21 27 -56 33 -76 13z"/>
<path d="M5085 5130 c-117 -63 -301 -118 -580 -175 -358 -72 -531 -94 -813
-103 l-202 -7 -132 -69 c-325 -168 -791 -471 -1067 -692 -215 -173 -472 -420
-598 -573 -99 -123 -111 -153 -69 -173 21 -9 42 -4 141 37 187 77 210 81 605
127 171 20 245 23 605 23 447 0 449 0 795 -66 200 -37 489 -118 650 -180 196
-75 331 -190 518 -438 240 -319 408 -521 433 -521 68 0 13 108 -206 415 -76
105 -150 252 -195 385 -44 130 -51 284 -21 480 27 173 58 346 71 389 5 19 8
36 6 38 -8 9 -106 -116 -199 -254 -56 -84 -127 -207 -165 -285 -36 -76 -71
-138 -78 -138 -7 0 -15 12 -18 28 -18 93 -18 99 18 207 39 117 90 207 226 405
200 290 178 269 285 270 33 0 107 7 165 15 58 8 191 25 295 39 301 40 359 49
369 57 5 4 -3 22 -18 40 -15 18 -45 67 -66 109 -47 94 -120 175 -298 333 -75
66 -187 167 -248 224 -62 57 -113 103 -115 102 -2 0 -44 -23 -94 -49z m-1235
-461 c82 -14 257 -39 278 -39 2 0 1 -4 -2 -9 -10 -15 -315 -24 -368 -11 -52
13 -88 42 -88 70 0 21 2 21 180 -11z m-336 -48 c33 -52 82 -88 136 -100 25 -5
151 -10 280 -10 243 0 351 -8 357 -27 5 -15 -183 -193 -300 -286 -20 -16 -67
-18 -482 -22 -253 -3 -495 -8 -537 -12 -49 -4 -78 -3 -78 3 0 9 137 133 269
242 36 30 98 84 136 119 75 69 162 132 182 132 7 0 24 -18 37 -39z m-983 -550
c22 -18 23 -21 9 -47 -25 -48 -240 -262 -329 -330 -85 -63 -321 -189 -342
-182 -11 4 347 363 436 439 103 89 174 139 196 139 4 0 17 -9 30 -19z"/>
<path d="M3535 4361 l-40 -19 75 -1 c41 -1 154 -4 250 -7 214 -7 213 9 -2 31
-188 19 -235 18 -283 -4z"/>
<path d="M4180 5153 c-228 -17 -571 -73 -695 -113 -33 -11 -76 -30 -95 -42
l-35 -22 25 -7 c37 -11 210 -10 250 1 19 5 130 23 245 39 267 39 742 133 718
142 -18 7 -326 9 -413 2z"/>
<path d="M5631 3788 c156 -150 477 -239 654 -183 l60 19 -40 3 c-111 7 -260
27 -340 45 -83 19 -276 98 -335 138 -53 36 -53 30 1 -22z"/>
<path d="M7447 2630 c-126 -90 -305 -172 -452 -206 l-60 -14 84 5 c152 10 380
105 471 195 84 85 62 95 -43 20z"/>
</g>
</svg>
